<mxfile host="app.diagrams.net" agent="Mozilla/5.0 (Windows NT 10.0; Win64; x64) AppleWebKit/537.36 (KHTML, like Gecko) Chrome/140.0.0.0 Safari/537.36" version="28.2.0">
  <diagram name="Page-1" id="4_JqPBNVKyjY7bX3ezKa">
    <mxGraphModel dx="1426" dy="743" grid="1" gridSize="10" guides="1" tooltips="1" connect="1" arrows="1" fold="1" page="1" pageScale="1" pageWidth="850" pageHeight="1100" math="0" shadow="0">
      <root>
        <mxCell id="0" />
        <mxCell id="1" parent="0" />
        <mxCell id="lGGVRHCySRyDh5O0Jhen-7" value="" style="edgeStyle=orthogonalEdgeStyle;rounded=0;orthogonalLoop=1;jettySize=auto;html=1;" edge="1" parent="1" source="lGGVRHCySRyDh5O0Jhen-1" target="lGGVRHCySRyDh5O0Jhen-2">
          <mxGeometry relative="1" as="geometry" />
        </mxCell>
        <mxCell id="lGGVRHCySRyDh5O0Jhen-1" value="" style="verticalLabelPosition=bottom;html=1;verticalAlign=top;align=center;strokeColor=none;fillColor=#00BEF2;shape=mxgraph.azure.computer;pointerEvents=1;" vertex="1" parent="1">
          <mxGeometry x="60" y="320" width="50" height="45" as="geometry" />
        </mxCell>
        <mxCell id="lGGVRHCySRyDh5O0Jhen-8" style="edgeStyle=orthogonalEdgeStyle;rounded=0;orthogonalLoop=1;jettySize=auto;html=1;" edge="1" parent="1" source="lGGVRHCySRyDh5O0Jhen-2" target="lGGVRHCySRyDh5O0Jhen-3">
          <mxGeometry relative="1" as="geometry" />
        </mxCell>
        <mxCell id="lGGVRHCySRyDh5O0Jhen-2" value="" style="outlineConnect=0;dashed=0;verticalLabelPosition=bottom;verticalAlign=top;align=center;html=1;shape=mxgraph.aws3.api_gateway;fillColor=#D9A741;gradientColor=none;" vertex="1" parent="1">
          <mxGeometry x="220" y="296" width="76.5" height="93" as="geometry" />
        </mxCell>
        <mxCell id="lGGVRHCySRyDh5O0Jhen-9" style="edgeStyle=orthogonalEdgeStyle;rounded=0;orthogonalLoop=1;jettySize=auto;html=1;" edge="1" parent="1" source="lGGVRHCySRyDh5O0Jhen-3" target="lGGVRHCySRyDh5O0Jhen-4">
          <mxGeometry relative="1" as="geometry" />
        </mxCell>
        <mxCell id="lGGVRHCySRyDh5O0Jhen-10" style="edgeStyle=orthogonalEdgeStyle;rounded=0;orthogonalLoop=1;jettySize=auto;html=1;" edge="1" parent="1" source="lGGVRHCySRyDh5O0Jhen-3" target="lGGVRHCySRyDh5O0Jhen-5">
          <mxGeometry relative="1" as="geometry" />
        </mxCell>
        <mxCell id="lGGVRHCySRyDh5O0Jhen-3" value="" style="outlineConnect=0;dashed=0;verticalLabelPosition=bottom;verticalAlign=top;align=center;html=1;shape=mxgraph.aws3.lambda_function;fillColor=#F58534;gradientColor=none;" vertex="1" parent="1">
          <mxGeometry x="430" y="307" width="69" height="72" as="geometry" />
        </mxCell>
        <mxCell id="lGGVRHCySRyDh5O0Jhen-4" value="" style="sketch=0;points=[[0,0,0],[0.25,0,0],[0.5,0,0],[0.75,0,0],[1,0,0],[0,1,0],[0.25,1,0],[0.5,1,0],[0.75,1,0],[1,1,0],[0,0.25,0],[0,0.5,0],[0,0.75,0],[1,0.25,0],[1,0.5,0],[1,0.75,0]];points=[[0,0,0],[0.25,0,0],[0.5,0,0],[0.75,0,0],[1,0,0],[0,1,0],[0.25,1,0],[0.5,1,0],[0.75,1,0],[1,1,0],[0,0.25,0],[0,0.5,0],[0,0.75,0],[1,0.25,0],[1,0.5,0],[1,0.75,0]];outlineConnect=0;fontColor=#232F3E;fillColor=#E7157B;strokeColor=#ffffff;dashed=0;verticalLabelPosition=bottom;verticalAlign=top;align=center;html=1;fontSize=12;fontStyle=0;aspect=fixed;shape=mxgraph.aws4.resourceIcon;resIcon=mxgraph.aws4.cloudformation;" vertex="1" parent="1">
          <mxGeometry x="426" y="110" width="78" height="78" as="geometry" />
        </mxCell>
        <mxCell id="lGGVRHCySRyDh5O0Jhen-5" value="Amazon DynamoDB" style="sketch=0;outlineConnect=0;fontColor=#232F3E;gradientColor=none;strokeColor=#ffffff;fillColor=#232F3E;dashed=0;verticalLabelPosition=middle;verticalAlign=bottom;align=center;html=1;whiteSpace=wrap;fontSize=10;fontStyle=1;spacing=3;shape=mxgraph.aws4.productIcon;prIcon=mxgraph.aws4.dynamodb;" vertex="1" parent="1">
          <mxGeometry x="690" y="288" width="80" height="110" as="geometry" />
        </mxCell>
        <mxCell id="lGGVRHCySRyDh5O0Jhen-6" value="Generate Short URL" style="text;html=1;align=center;verticalAlign=middle;whiteSpace=wrap;rounded=0;" vertex="1" parent="1">
          <mxGeometry x="426" y="470" width="60" height="30" as="geometry" />
        </mxCell>
        <mxCell id="lGGVRHCySRyDh5O0Jhen-11" style="edgeStyle=orthogonalEdgeStyle;rounded=0;orthogonalLoop=1;jettySize=auto;html=1;entryX=0.65;entryY=0.033;entryDx=0;entryDy=0;entryPerimeter=0;" edge="1" parent="1" source="lGGVRHCySRyDh5O0Jhen-3" target="lGGVRHCySRyDh5O0Jhen-6">
          <mxGeometry relative="1" as="geometry" />
        </mxCell>
        <mxCell id="lGGVRHCySRyDh5O0Jhen-12" value="URL Shortner" style="text;strokeColor=none;fillColor=none;html=1;fontSize=24;fontStyle=1;verticalAlign=middle;align=center;" vertex="1" parent="1">
          <mxGeometry x="406" y="20" width="100" height="40" as="geometry" />
        </mxCell>
      </root>
    </mxGraphModel>
  </diagram>
</mxfile>
